/* XPM */
static char *87058615[] = {
/* width height ncolors chars_per_pixel */
"25 25 2 1",
/* colors */
"A c #FFFFFFFFFFFF",
"B c #DCDC2F2F1818",
/* pixels */
"AAAAAAAAAAAABAAAAAAAAAAAA",
"AAAAAAAAAAAABAAAAAAAAAAAA",
"AAAAAAAAAAAABAAAAAAAAAAAA",
"AAAAAAAAAAAABAAAAAAAAAAAA",
"AAAAAAAAAAAABAAAAAAAAAAAA",
"AAAAAAAAAAAABAAAAAAAAAAAA",
"AAAAAAAAAAAABAAAAAAAAAAAA",
"AAAAAAAAAAAABAAAAAAAAAAAA",
"AAAAAAAAAAAABAAAAAAAAAAAA",
"AAAAAAAAAAAABAAAAAAAAAAAA",
"AAAAAAAAAAAABAAAAAAAAAAAA",
"AAAAAAAAAAAABAAAAAAAAAAAA",
"BBBBBBBBBBBBBBBBBBBBBBBBB",
"AAAAAAAAAAAABAAAAAAAAAAAA",
"AAAAAAAAAAAABAAAAAAAAAAAA",
"AAAAAAAAAAAABAAAAAAAAAAAA",
"AAAAAAAAAAAABAAAAAAAAAAAA",
"AAAAAAAAAAAABAAAAAAAAAAAA",
"AAAAAAAAAAAABAAAAAAAAAAAA",
"AAAAAAAAAAAABAAAAAAAAAAAA",
"AAAAAAAAAAAABAAAAAAAAAAAA",
"AAAAAAAAAAAABAAAAAAAAAAAA",
"AAAAAAAAAAAABAAAAAAAAAAAA",
"AAAAAAAAAAAABAAAAAAAAAAAA",
"AAAAAAAAAAAABAAAAAAAAAAAA"};
