/* XPM */
static char *karelnOff[] = {
/* width height ncolors chars_per_pixel */
"25 25 8 1",
/* colors */
"A c #FFFFFFFFFFFF",
"B c #DCDC2F2F1818",
"C c #CDCDCDCDCDCD",
"D c #63638C8CBDBD",
"E c #454545454545",
"F c #4343A1A12626",
"G c #21212B2B7070",
"H c #000000000000",
/* pixels */
"AAAAAAAAAAAABAAAAAAAAAAAA",
"AAAAAAAAAAAABAAAAAAAAAAAA",
"AAAAAAAAHHHHHHHHHAAAAAAAA",
"AAAAAAAHCCCCCCCCCHAAAAAAA",
"AAAAAAHCCEECCCEECCHAAAAAA",
"AAAAAAHCEDHECEDHECHAAAAAA",
"AAAAAAHCEHHECEHHECHAAAAAA",
"AAAAAAHCCEECCCEECCHAAAAAA",
"AAAAAAHCCCCCHCCCCCHAAAAAA",
"AAAAAAAHHHHCCCHHHHAAAAAAA",
"AAAAAAHHCCCHHHCCCHHAAAAAA",
"AAAAAHHCCCCCCCCCCCHHAAAAA",
"BBBBHFHCCHHCCCCHCCHFHBBBB",
"AAAAHFHCCCHCCHHHCCHFHAAAA",
"AAAAHFHCCCHHHHCCCCHFHAAAA",
"AAAAHFHCCCHHCCCCCCHFHAAAA",
"AAAAHFHCCCHHHCCCCCHFHAAAA",
"AAAAHEHCCCHCHHCCCCHEHAAAA",
"AAAAHEHCCHHCCHHHCCHEHAAAA",
"AAAAHHHCCCCCCCCCCCHHHAAAA",
"AAAAAAHHHHHHHHHHHHHAAAAAA",
"AAAAAAHBBBBHGHBBBBHAAAAAA",
"AAAAAAHBBBHABAHBBBHAAAAAA",
"AAAAAAAHHHHABAHHHHAAAAAAA",
"AAAAAAAAAAAABAAAAAAAAAAAA"};
