/* XPM */
static char *karele[] = {
/* width height ncolors chars_per_pixel */
"25 25 9 1",
/* colors */
"A c #FFFFFFFFFFFF",
"B c #DCDC2F2F1818",
"C c #CDCDCDCDCDCD",
"D c #63638C8CBDBD",
"E c #454545454545",
"F c #4343A1A12626",
"G c #21212B2B7070",
"H c #000000000000",
"I c #FFFFFFFF0000",
/* pixels */
"AAAAAAAAAAAABAAAAAAAAAAAA",
"AAAAAAAAAAAABAAAAAAAAAAAA",
"AAAAAAAAAAAABAAAAAAAAAAAA",
"AAAAAAAAAAAABAAAAAAAAAAAA",
"AAAAAHHHHHHHHAAAAAAAAAAAA",
"AAAAAHEEFFFFFHAAAAAAAAAAA",
"AAHHHHHHHHHHHHHAHHHHHAAAA",
"AHBBHIIIIIIIIIHHCCCCCHAAA",
"AHBBHIIIIIIIIIIHCCEECCHAA",
"AHBBHIHIIIIIHIIHCEHDECHAA",
"AHHBHIHHHHHHHIIHCEHHECHAA",
"AAAHHIIIHHHIIIHCCCEECCHAA",
"BBBGHIIHHIHIIIHCHCCCCCHBB",
"AAAHHIHHIIHHIIHCCCEECCHAA",
"AHHBHIHIIIIHIIIHCEHDECHAA",
"AHBBHIHIIIIHHIIHCEHHECHAA",
"AHBBHIIIIIIIIIIHCCEECCHAA",
"AHBBHIIIIIIIIIHHCCCCCHAAA",
"AAHHHHHHHHHHHHHAHHHHHAAAA",
"AAAAAHEEFFFFFHAAAAAAAAAAA",
"AAAAAHHHHHHHHAAAAAAAAAAAA",
"AAAAAAAAAAAABAAAAAAAAAAAA",
"AAAAAAAAAAAABAAAAAAAAAAAA",
"AAAAAAAAAAAABAAAAAAAAAAAA",
"AAAAAAAAAAAABAAAAAAAAAAAA"};
